<?xml version="1.0" encoding="UTF-8" standalone="no"?> <svg width="64" height="64" viewBox="0 0 64 64" fill="none" xmlns="http://www.w3.org/2000/svg">
<path d="M32 57C36.9445 57 41.778 55.5338 45.8893 52.7868C50.0005 50.0397 53.2048 46.1352 55.097 41.5671C56.9892 36.9989 57.4843 31.9723 56.5196 27.1228C55.555 22.2732 53.174 17.8187 49.6777 14.3223C46.1814 10.826 41.7268 8.44501 36.8773 7.48038C32.0277 6.51575 27.0011 7.01083 22.4329 8.90302C17.8648 10.7952 13.9603 13.9995 11.2133 18.1108C8.46622 22.222 7 27.0555 7 32C7.00741 38.6281 9.64371 44.9827 14.3305 49.6695C19.0173 54.3563 25.3719 56.9926 32 57V57ZM19.5 17.5C19.8979 17.1024 20.4374 16.879 21 16.879C21.5626 16.879 22.1021 17.1024 22.5 17.5L29.172 24.172C29.9221 24.9219 30.9393 25.3432 32 25.3432C33.0607 25.3432 34.0779 24.9219 34.828 24.172L41.5 17.5C41.697 17.303 41.9308 17.1468 42.1882 17.0402C42.4456 16.9336 42.7214 16.8787 43 16.8787C43.2786 16.8787 43.5544 16.9336 43.8118 17.0402C44.0692 17.1468 44.303 17.303 44.5 17.5C44.697 17.697 44.8532 17.9308 44.9598 18.1882C45.0664 18.4456 45.1213 18.7214 45.1213 19C45.1213 19.2786 45.0664 19.5544 44.9598 19.8118C44.8532 20.0692 44.697 20.303 44.5 20.5L37.657 27.343C36.9141 28.0859 36.0322 28.6752 35.0616 29.0773C34.0909 29.4794 33.0506 29.6863 32 29.6863C30.9494 29.6863 29.9091 29.4794 28.9384 29.0773C27.9678 28.6752 27.0859 28.0859 26.343 27.343L19.5 20.5C19.1023 20.1021 18.879 19.5626 18.879 19C18.879 18.4375 19.1023 17.8979 19.5 17.5ZM19.5 43.5L26.343 36.657C27.0859 35.9141 27.9678 35.3248 28.9384 34.9227C29.9091 34.5207 30.9494 34.3137 32 34.3137C33.0506 34.3137 34.0909 34.5207 35.0616 34.9227C36.0322 35.3248 36.9141 35.9141 37.657 36.657L44.5 43.5C44.8978 43.8978 45.1213 44.4374 45.1213 45C45.1213 45.5626 44.8978 46.1022 44.5 46.5C44.1022 46.8978 43.5626 47.1213 43 47.1213C42.4374 47.1213 41.8978 46.8978 41.5 46.5L34.828 39.828C34.0779 39.0781 33.0607 38.6569 32 38.6569C30.9393 38.6569 29.9221 39.0781 29.172 39.828L22.5 46.5C22.1022 46.8978 21.5626 47.1213 21 47.1213C20.4374 47.1213 19.8978 46.8978 19.5 46.5C19.1022 46.1022 18.8787 45.5626 18.8787 45C18.8787 44.4374 19.1022 43.8978 19.5 43.5V43.5Z" fill="#9BC9FF"/>
<path d="M32 62C26.0666 62 20.2664 60.2405 15.3329 56.9441C10.3994 53.6477 6.55426 48.9623 4.28363 43.4805C2.013 37.9987 1.4189 31.9667 2.57646 26.1473C3.73401 20.3279 6.59123 14.9824 10.7868 10.7868C14.9824 6.59123 20.3279 3.73401 26.1473 2.57646C31.9667 1.4189 37.9987 2.013 43.4805 4.28363C48.9623 6.55426 53.6477 10.3994 56.9441 15.3329C60.2405 20.2664 62 26.0666 62 32C61.991 39.9537 58.8274 47.5791 53.2033 53.2033C47.5791 58.8274 39.9537 61.991 32 62V62ZM32 4.00001C26.4621 4.00001 21.0486 5.64218 16.444 8.71886C11.8395 11.7955 8.25064 16.1685 6.13139 21.2849C4.01213 26.4012 3.45764 32.0311 4.53803 37.4625C5.61841 42.894 8.28515 47.8831 12.201 51.799C16.1169 55.7149 21.106 58.3816 26.5375 59.462C31.969 60.5424 37.5988 59.9879 42.7152 57.8686C47.8315 55.7494 52.2045 52.1606 55.2812 47.556C58.3578 42.9514 60 37.5379 60 32C59.9915 24.5766 57.0388 17.4596 51.7896 12.2104C46.5405 6.96119 39.4235 4.00848 32 4.00001V4.00001Z" fill="#1E81CE"/>
<path d="M32 58C26.8577 58 21.8309 56.4751 17.5552 53.6182C13.2795 50.7613 9.94702 46.7007 7.97914 41.9498C6.01127 37.1989 5.49638 31.9712 6.49959 26.9277C7.50281 21.8842 9.97907 17.2514 13.6152 13.6152C17.2514 9.97907 21.8842 7.50281 26.9277 6.49959C31.9712 5.49638 37.1989 6.01127 41.9498 7.97914C46.7007 9.94702 50.7613 13.2795 53.6182 17.5552C56.4751 21.8309 58 26.8577 58 32C57.9921 38.8932 55.2502 45.5018 50.376 50.376C45.5018 55.2502 38.8932 57.9921 32 58ZM32 8.00001C27.2533 8.00001 22.6131 9.40759 18.6663 12.0447C14.7195 14.6819 11.6434 18.4302 9.8269 22.8156C8.0104 27.201 7.53512 32.0266 8.46116 36.6822C9.38721 41.3377 11.673 45.6141 15.0294 48.9706C18.3859 52.327 22.6623 54.6128 27.3178 55.5389C31.9734 56.4649 36.799 55.9896 41.1844 54.1731C45.5698 52.3566 49.3181 49.2805 51.9553 45.3337C54.5924 41.3869 56 36.7468 56 32C55.9926 25.6371 53.4617 19.5369 48.9624 15.0376C44.4631 10.5384 38.3629 8.00742 32 8.00001V8.00001Z" fill="#1E81CE"/>
<path d="M32 30.682C30.8182 30.6841 29.6475 30.4526 28.5554 30.001C27.4633 29.5493 26.4711 28.8862 25.636 28.05L18.793 21.207C18.2077 20.6216 17.8788 19.8277 17.8788 19C17.8788 18.1722 18.2077 17.3783 18.793 16.793C19.3783 16.2076 20.1722 15.8788 21 15.8788C21.8278 15.8788 22.6217 16.2076 23.207 16.793L29.878 23.464C30.4494 24.0099 31.2092 24.3145 31.9995 24.3145C32.7898 24.3145 33.5496 24.0099 34.121 23.464L40.793 16.793C41.3873 16.2248 42.1778 15.9078 43 15.9078C43.8222 15.9078 44.6127 16.2248 45.207 16.793C45.7914 17.3788 46.1196 18.1725 46.1196 19C46.1196 19.8274 45.7914 20.6211 45.207 21.207L38.364 28.05C37.5289 28.8862 36.5368 29.5493 35.4446 30.001C34.3525 30.4526 33.1819 30.6841 32 30.682V30.682ZM21 17.882C20.7782 17.8818 20.5613 17.9475 20.3769 18.0707C20.1924 18.1938 20.0486 18.369 19.9637 18.5739C19.8788 18.7788 19.8566 19.0043 19.8999 19.2218C19.9432 19.4394 20.0501 19.6392 20.207 19.796L27.05 26.639C28.3638 27.9499 30.144 28.6862 32 28.6862C33.856 28.6862 35.6362 27.9499 36.95 26.639L43.793 19.796C44.0025 19.5852 44.12 19.3001 44.12 19.003C44.12 18.7058 44.0025 18.4207 43.793 18.21C43.5794 18.0059 43.2954 17.892 43 17.892C42.7046 17.892 42.4206 18.0059 42.207 18.21L35.535 24.881C34.5973 25.8186 33.3256 26.3454 31.9995 26.3454C30.6734 26.3454 29.4017 25.8186 28.464 24.881L21.793 18.21C21.6892 18.1052 21.5657 18.022 21.4296 17.9651C21.2935 17.9083 21.1475 17.879 21 17.879V17.882Z" fill="#1E81CE"/>
<path d="M43 48.1221C42.5899 48.1231 42.1837 48.0428 41.8048 47.8857C41.426 47.7286 41.0821 47.498 40.793 47.2071L34.121 40.5361C33.5496 39.9901 32.7898 39.6855 31.9995 39.6855C31.2092 39.6855 30.4494 39.9901 29.878 40.5361L23.207 47.2071C22.6217 47.7924 21.8278 48.1212 21 48.1212C20.1722 48.1212 19.3783 47.7924 18.793 47.2071C18.2077 46.6217 17.8788 45.8278 17.8788 45.0001C17.8788 44.1723 18.2077 43.3784 18.793 42.7931L25.636 35.9501C27.3251 34.2647 29.6139 33.3181 32 33.3181C34.3862 33.3181 36.6749 34.2647 38.364 35.9501L45.207 42.7931C45.6434 43.2297 45.9406 43.7859 46.0609 44.3913C46.1813 44.9968 46.1195 45.6243 45.8833 46.1946C45.6471 46.765 45.2471 47.2525 44.7339 47.5955C44.2207 47.9386 43.6173 48.1218 43 48.1221V48.1221ZM32 37.6571C32.6569 37.6551 33.3076 37.7835 33.9144 38.035C34.5213 38.2865 35.0721 38.656 35.535 39.1221L42.207 45.7931C42.4206 45.9971 42.7046 46.111 43 46.111C43.2954 46.111 43.5794 45.9971 43.793 45.7931C44.0025 45.5823 44.12 45.2972 44.12 45.0001C44.12 44.7029 44.0025 44.4178 43.793 44.2071L36.95 37.3641C35.6359 36.0536 33.8558 35.3177 32 35.3177C30.1442 35.3177 28.3641 36.0536 27.05 37.3641L20.207 44.2071C19.9967 44.4174 19.8785 44.7026 19.8785 45.0001C19.8785 45.2975 19.9967 45.5827 20.207 45.7931C20.4173 46.0034 20.7026 46.1215 21 46.1215C21.2974 46.1215 21.5827 46.0034 21.793 45.7931L28.464 39.1221C28.9273 38.6562 29.4783 38.2868 30.0853 38.0354C30.6922 37.7839 31.343 37.6553 32 37.6571V37.6571Z" fill="#1E81CE"/>
</svg>
